<?xml version="1.0" encoding="UTF-8" standalone="no"?>
<!DOCTYPE svg PUBLIC "-//W3C//DTD SVG 1.1//EN" "http://www.w3.org/Graphics/SVG/1.1/DTD/svg11.dtd">
<svg xmlns="http://www.w3.org/2000/svg" version="1.1" viewBox="0.00 0.00 200.00 200.00">
<g stroke-width="2.00" fill="none" stroke-linecap="butt">
<path stroke="#aedcff" vector-effect="non-scaling-stroke" d="
  M 66.0357 79.5930
  A 4.29 4.29 0.0 0 0 61.7531 75.2955
  L 21.0732 75.2245
  A 4.29 4.29 0.0 0 0 16.7757 79.5070
  L 16.7043 120.4070
  A 4.29 4.29 0.0 0 0 20.9869 124.7045
  L 61.6668 124.7755
  A 4.29 4.29 0.0 0 0 65.9643 120.4930
  L 66.0357 79.5930"
/>
<path stroke="#aedcff" vector-effect="non-scaling-stroke" d="
  M 98.15 75.25
  A 0.43 0.43 0.0 0 0 97.72 75.68
  L 97.81 93.51
  A 0.43 0.43 0.0 0 1 97.05 93.79
  L 81.93 75.48
  A 0.43 0.43 0.0 0 0 81.60 75.33
  L 73.92 75.23
  A 0.43 0.43 0.0 0 0 73.48 75.66
  L 73.49 111.09
  A 0.43 0.43 0.0 0 0 73.93 111.52
  L 82.83 111.40
  A 0.43 0.43 0.0 0 0 83.25 110.97
  L 83.25 93.11
  A 0.43 0.43 0.0 0 1 84.01 92.84
  L 99.31 111.34
  A 0.43 0.43 0.0 0 0 99.64 111.50
  L 107.32 111.50
  A 0.43 0.43 0.0 0 0 107.75 111.07
  L 107.75 75.68
  A 0.43 0.43 0.0 0 0 107.32 75.25
  L 98.15 75.25"
/>
<path stroke="#aedcff" vector-effect="non-scaling-stroke" d="
  M 125.26 75.85
  A 0.60 0.60 0.0 0 0 124.66 75.25
  L 115.60 75.25
  A 0.60 0.60 0.0 0 0 115.00 75.85
  L 115.00 110.91
  A 0.60 0.60 0.0 0 0 115.60 111.51
  L 124.66 111.51
  A 0.60 0.60 0.0 0 0 125.26 110.91
  L 125.26 75.85"
/>
<path stroke="#aedcff" vector-effect="non-scaling-stroke" d="
  M 149.34 98.23
  A 0.32 0.32 0.0 0 1 148.75 98.23
  L 139.22 75.45
  A 0.32 0.32 0.0 0 0 138.93 75.25
  L 128.67 75.25
  A 0.32 0.32 0.0 0 0 128.38 75.70
  L 143.57 111.31
  A 0.32 0.32 0.0 0 0 143.86 111.50
  L 153.46 111.50
  A 0.32 0.32 0.0 0 0 153.75 111.31
  L 168.97 75.70
  A 0.32 0.32 0.0 0 0 168.68 75.25
  L 159.35 75.25
  A 0.32 0.32 0.0 0 0 159.06 75.44
  L 149.34 98.23"
/>
<path stroke="#98d3ff" vector-effect="non-scaling-stroke" d="
  M 99.24 124.13
  Q 96.71 123.60 94.66 124.15
  Q 93.75 124.39 94.67 124.61
  Q 97.26 125.24 99.24 124.13"
/>
<path stroke="#98d3ff" vector-effect="non-scaling-stroke" d="
  M 99.24 124.13
  Q 100.03 124.11 100.52 123.87
  A 1.04 1.03 -17.1 0 0 101.08 122.82
  L 100.51 117.97
  Q 100.44 117.42 99.90 117.54
  Q 99.72 117.58 99.60 117.72
  Q 99.40 117.94 99.40 118.50
  Q 99.40 121.16 99.24 124.13"
/>
<path stroke="#aedcff" vector-effect="non-scaling-stroke" d="
  M 146.50 119.61
  Q 145.47 121.64 146.14 123.57
  A 0.58 0.58 0.0 0 0 147.26 123.37
  L 147.18 120.02"
/>
<path stroke="#98d3ff" vector-effect="non-scaling-stroke" d="
  M 147.18 120.02
  Q 147.84 117.48 146.78 117.66
  Q 145.64 117.84 146.50 119.61"
/>
<path stroke="#e9f6ff" vector-effect="non-scaling-stroke" d="
  M 147.18 120.02
  L 146.50 119.61"
/>
<path stroke="#aedcff" vector-effect="non-scaling-stroke" d="
  M 110.19 117.75
  C 107.57 117.56 107.97 122.26 108.38 123.47
  A 0.66 0.66 0.0 0 0 109.65 123.37
  L 110.52 118.17
  Q 110.59 117.78 110.19 117.75"
/>
<path stroke="#aedcff" vector-effect="non-scaling-stroke" d="
  M 133.32 119.65
  C 131.14 118.74 128.88 122.67 132.84 124.32
  A 1.87 1.87 0.0 0 0 135.43 122.69
  L 135.66 118.20
  A 0.43 0.43 0.0 0 0 134.86 117.96
  L 133.97 119.44
  Q 133.74 119.83 133.32 119.65"
/>
<path stroke="#aedcff" vector-effect="non-scaling-stroke" d="
  M 168.02 119.72
  Q 167.37 121.72 167.91 123.80
  A 0.43 0.43 0.0 0 0 168.70 123.90
  Q 169.17 123.08 168.96 122.09
  Q 168.89 121.76 168.96 121.42
  Q 169.19 120.42 168.49 119.69"
/>
<path stroke="#98d3ff" vector-effect="non-scaling-stroke" d="
  M 168.49 119.69
  L 168.96 118.28
  Q 169.01 118.13 168.89 118.02
  L 168.66 117.78
  A 0.41 0.41 0.0 0 0 167.99 117.94
  Q 167.73 118.70 168.02 119.72"
/>
<path stroke="#e9f6ff" vector-effect="non-scaling-stroke" d="
  M 168.49 119.69
  Q 168.27 119.81 168.02 119.72"
/>
<path stroke="#aedcff" vector-effect="non-scaling-stroke" d="
  M 75.31 121.18
  L 77.67 123.98
  A 0.64 0.64 0.0 0 0 78.80 123.58
  L 78.86 118.63
  A 0.77 0.77 0.0 0 0 77.32 118.53
  Q 77.20 119.48 77.52 120.43
  A 0.54 0.54 0.0 0 1 76.59 120.94
  L 74.40 118.25
  A 0.65 0.65 0.0 0 0 73.24 118.66
  L 73.28 123.82
  A 0.55 0.55 0.0 0 0 74.37 123.86
  L 74.56 121.42
  A 0.43 0.43 0.0 0 1 75.31 121.18"
/>
<path stroke="#aedcff" vector-effect="non-scaling-stroke" d="
  M 141.75 121.51
  Q 141.08 120.61 140.64 118.91
  Q 140.46 118.21 139.80 118.06
  A 0.54 0.54 0.0 0 0 139.19 118.81
  L 141.45 123.75
  A 0.76 0.76 0.0 0 0 142.83 123.75
  L 145.20 118.57
  A 0.35 0.35 0.0 0 0 144.67 118.14
  Q 143.15 119.27 142.95 121.18
  A 0.67 0.67 0.0 0 1 141.75 121.51"
/>
<path stroke="#aedcff" vector-effect="non-scaling-stroke" d="
  M 165.9967 118.4274
  A 0.47 0.47 0.0 0 0 165.5243 117.9599
  L 165.4643 117.9602
  A 0.47 0.47 0.0 0 0 164.9968 118.4327
  L 165.0233 123.4926
  A 0.47 0.47 0.0 0 0 165.4957 123.9601
  L 165.5557 123.9598
  A 0.47 0.47 0.0 0 0 166.0232 123.4873
  L 165.9967 118.4274"
/>
<path stroke="#aedcff" vector-effect="non-scaling-stroke" d="
  M 89.74 120.94
  Q 89.33 119.83 87.93 119.33
  A 1.39 0.98 -4.0 0 0 86.12 120.81
  Q 86.33 121.02 86.25 121.25
  Q 86.10 121.66 86.01 121.78
  L 85.59 122.43
  Q 85.18 123.04 85.76 123.50
  Q 87.70 125.03 89.38 123.03
  Q 90.17 122.09 89.74 120.94"
/>
<path stroke="#aedcff" vector-effect="non-scaling-stroke" d="
  M 126.44 122.12
  L 126.86 120.40
  A 0.53 0.53 0.0 0 1 127.90 120.45
  L 128.06 121.69
  A 0.67 0.66 69.3 0 0 129.08 122.16
  L 129.56 121.84
  A 1.26 1.26 0.0 0 0 129.07 119.55
  C 123.36 118.60 124.06 125.24 128.82 123.89
  A 0.45 0.45 0.0 0 0 128.70 123.00
  L 127.14 123.00
  Q 126.23 123.00 126.44 122.12"
/>
<path stroke="#aedcff" vector-effect="non-scaling-stroke" d="
  M 150.78 120.36
  L 151.49 120.47
  A 0.45 0.44 66.1 0 0 151.80 119.66
  Q 150.25 118.62 148.88 120.13
  Q 148.16 120.92 148.96 121.90
  A 0.63 0.63 0.0 0 0 150.09 121.53
  L 150.11 120.92
  A 0.58 0.58 0.0 0 1 150.78 120.36"
/>
<path stroke="#aedcff" vector-effect="non-scaling-stroke" d="
  M 161.75 119.32
  A 1.32 1.32 0.0 0 0 159.77 120.72
  Q 159.94 121.57 159.41 122.19
  A 1.08 1.08 0.0 0 0 160.14 123.97
  L 160.72 124.01
  Q 161.61 124.08 161.08 123.36
  Q 160.15 122.13 160.56 120.60
  A 0.62 0.61 -52.0 0 1 161.69 120.46
  C 162.37 121.66 161.56 122.96 161.90 123.70
  Q 162.12 124.17 162.75 124.13
  Q 163.28 124.10 163.42 123.58
  Q 164.14 120.76 161.75 119.32"
/>
<path stroke="#aedcff" vector-effect="non-scaling-stroke" d="
  M 172.36 122.11
  L 173.87 120.44
  A 0.45 0.45 0.0 0 0 173.61 119.69
  L 170.82 119.20
  A 0.37 0.37 0.0 0 0 170.42 119.41
  L 170.03 120.21
  A 0.07 0.07 0.0 0 0 170.08 120.31
  L 171.38 120.60
  A 0.55 0.54 -64.1 0 1 171.68 121.48
  L 170.14 123.40
  A 0.48 0.48 0.0 0 0 170.56 124.18
  L 173.72 123.92
  A 0.39 0.38 49.0 0 0 173.77 123.16
  L 172.61 122.90
  A 0.48 0.48 0.0 0 1 172.36 122.11"
/>
<path stroke="#aedcff" vector-effect="non-scaling-stroke" d="
  M 81.78 122.61
  Q 81.17 121.36 81.95 120.20
  A 0.44 0.44 0.0 0 0 81.35 119.59
  Q 79.54 120.75 80.13 122.55
  A 2.21 2.15 -83.0 0 0 81.02 123.72
  Q 82.68 124.81 83.82 123.66
  A 0.47 0.47 0.0 0 0 83.40 122.86
  L 82.60 123.02
  Q 82.03 123.13 81.78 122.61"
/>
<path stroke="#aedcff" vector-effect="non-scaling-stroke" d="
  M 84.5000 122.2237
  A 1.54 0.72 60.0 0 0 84.3535 120.5300
  A 1.54 0.72 60.0 0 0 82.9600 119.5563
  A 1.54 0.72 60.0 0 0 83.1065 121.2500
  A 1.54 0.72 60.0 0 0 84.5000 122.2237"
/>
<path stroke="#aedcff" vector-effect="non-scaling-stroke" d="
  M 91.17 121.21
  Q 91.16 122.45 91.34 123.72
  Q 91.42 124.29 91.96 124.09
  Q 92.24 123.99 92.39 123.67
  Q 92.52 123.39 92.44 122.75
  Q 92.22 121.07 93.59 120.56
  A 0.55 0.55 0.0 0 0 93.39 119.50
  Q 92.27 119.51 91.69 119.86
  Q 91.17 120.19 91.17 121.21"
/>
<path stroke="#aedcff" vector-effect="non-scaling-stroke" d="
  M 106.92 123.52
  C 107.67 120.25 105.37 118.48 102.38 119.94
  Q 102.00 120.13 102.00 120.55
  L 102.00 123.31
  Q 102.00 124.00 102.69 124.00
  Q 102.83 124.00 102.98 124.00
  A 0.39 0.38 3.1 0 0 103.38 123.65
  L 103.68 120.93
  A 0.61 0.61 0.0 0 1 104.69 120.53
  Q 105.90 121.59 105.46 123.20
  A 0.62 0.61 17.2 0 0 105.86 123.94
  Q 106.75 124.24 106.92 123.52"
/>
<path stroke="#aedcff" vector-effect="non-scaling-stroke" d="
  M 114.31 119.69
  Q 113.58 119.30 112.98 119.61
  Q 112.49 119.86 112.36 120.59
  Q 112.09 122.01 112.32 123.45
  A 0.66 0.65 86.2 0 0 112.94 124.00
  Q 113.13 124.00 113.32 124.00
  A 0.44 0.43 80.8 0 0 113.73 123.42
  Q 113.05 121.46 114.81 120.37
  Q 115.24 120.10 114.83 119.80
  Q 114.58 119.62 114.31 119.69"
/>
<path stroke="#aedcff" vector-effect="non-scaling-stroke" d="
  M 117.26 122.52
  Q 117.20 121.38 116.03 121.91
  A 0.78 0.77 -34.9 0 0 115.80 123.16
  Q 116.55 123.91 117.76 124.08
  A 2.17 2.17 0.0 0 0 120.08 121.12
  Q 119.03 118.55 116.12 119.94
  A 0.38 0.38 0.0 0 0 116.19 120.65
  Q 116.87 120.84 117.17 120.34
  A 0.63 0.63 0.0 0 1 118.20 120.28
  Q 119.03 121.33 118.75 122.63
  Q 118.67 123.00 118.41 123.14
  Q 118.12 123.29 117.80 123.20
  A 0.75 0.75 0.0 0 1 117.26 122.52"
/>
<path stroke="#aedcff" vector-effect="non-scaling-stroke" d="
  M 121.69 120.44
  Q 121.16 121.88 121.91 123.67
  A 0.50 0.50 0.0 0 0 122.87 123.43
  Q 122.71 121.72 123.79 120.51
  Q 124.30 119.95 123.60 119.64
  Q 122.20 119.02 121.69 120.44"
/>
<path stroke="#aedcff" vector-effect="non-scaling-stroke" d="
  M 154.82 122.49
  L 154.62 119.83
  A 0.53 0.53 0.0 0 0 153.60 119.69
  Q 152.74 122.04 154.34 124.01
  A 0.73 0.72 66.5 0 0 155.01 124.28
  L 157.42 123.92
  Q 157.91 123.85 157.95 123.36
  Q 158.13 120.89 157.93 120.08
  Q 157.77 119.41 157.08 119.53
  A 0.53 0.53 0.0 0 0 156.66 120.22
  Q 157.33 122.22 155.86 123.05
  A 0.70 0.70 0.0 0 1 154.82 122.49"
/>
<path stroke="#aedcff" vector-effect="non-scaling-stroke" d="
  M 177.78 120.46
  L 178.15 121.83
  A 0.46 0.46 0.0 0 0 179.01 121.90
  Q 179.84 120.12 177.28 119.50
  A 1.55 1.50 41.3 0 0 176.44 119.54
  C 173.39 120.56 174.75 124.93 178.43 123.88
  Q 178.60 123.83 178.67 123.71
  Q 178.77 123.56 178.76 123.38
  Q 178.76 123.02 178.40 123.07
  Q 177.86 123.13 177.33 123.04
  Q 175.69 122.75 176.59 120.40
  A 0.63 0.63 0.0 0 1 177.78 120.46"
/>
<path stroke="#aedcff" vector-effect="non-scaling-stroke" d="
  M 182.24 120.98
  L 182.88 120.35
  Q 183.33 119.90 182.74 119.67
  Q 181.52 119.19 180.92 120.40
  Q 180.08 122.12 181.15 123.86
  A 0.36 0.36 0.0 0 0 181.82 123.71
  L 182.08 121.33
  A 0.59 0.54 72.4 0 1 182.24 120.98"
/>
<path stroke="#aedcff" vector-effect="non-scaling-stroke" d="
  M 150.21 122.90
  L 148.63 123.17
  A 0.37 0.37 0.0 0 0 148.60 123.90
  Q 150.45 124.39 152.03 123.49
  A 0.86 0.85 -37.0 0 0 152.22 122.15
  Q 151.31 121.22 150.62 122.59
  A 0.58 0.56 -81.3 0 1 150.21 122.90"
/>
<path stroke="#aedcff" vector-effect="non-scaling-stroke" d="
  M 44.86 88.59
  Q 37.47 88.19 30.36 89.34
  Q 29.92 89.41 29.55 89.68
  L 28.06 90.76
  Q 26.83 91.66 28.23 91.06
  L 30.71 90.02"
/>
<path stroke="#e9f6ff" vector-effect="non-scaling-stroke" d="
  M 30.71 90.02
  Q 31.02 90.20 31.35 90.25
  Q 31.83 90.32 32.19 90.64
  L 34.23 92.46
  A 0.54 0.50 -79.6 0 1 34.35 92.65
  C 35.19 94.79 35.04 97.24 35.80 99.10
  Q 37.18 102.50 39.25 104.58"
/>
<path stroke="#aedcff" vector-effect="non-scaling-stroke" d="
  M 39.25 104.58
  Q 44.52 100.97 46.70 96.85
  A 0.97 0.97 0.0 0 1 48.46 96.93
  Q 52.27 106.12 58.53 112.57"
/>
<path stroke="#e9f6ff" vector-effect="non-scaling-stroke" d="
  M 58.53 112.57
  Q 60.93 112.21 61.10 111.80
  A 2.00 1.72 -55.5 0 0 60.89 109.85
  Q 56.34 104.38 52.48 96.74"
/>
<path stroke="#aedcff" vector-effect="non-scaling-stroke" d="
  M 52.48 96.74
  L 50.25 89.41"
/>
<path stroke="#e9f6ff" vector-effect="non-scaling-stroke" d="
  M 50.25 89.41
  Q 47.34 86.83 44.86 88.59"
/>
<path stroke="#98d3ff" vector-effect="non-scaling-stroke" d="
  M 50.25 89.41
  Q 49.12 90.67 48.30 91.89
  C 46.84 94.05 44.94 95.08 43.74 97.55
  C 42.33 100.44 40.94 102.03 39.25 104.58"
/>
<path stroke="#98d3ff" vector-effect="non-scaling-stroke" d="
  M 30.71 90.02
  L 44.86 88.59"
/>
<path stroke="#98d3ff" vector-effect="non-scaling-stroke" d="
  M 52.48 96.74
  Q 53.22 104.59 58.53 112.57"
/>
<path stroke="#aedcff" vector-effect="non-scaling-stroke" d="
  M 132.9612 123.0751
  A 1.20 1.05 95.2 0 0 134.1157 121.9752
  A 1.20 1.05 95.2 0 0 133.1788 120.6849
  A 1.20 1.05 95.2 0 0 132.0243 121.7848
  A 1.20 1.05 95.2 0 0 132.9612 123.0751"
/>
<path stroke="#aedcff" vector-effect="non-scaling-stroke" d="
  M 87.18 123.22
  Q 87.18 123.50 87.21 123.53
  A 0.66 0.63 14.0 0 0 88.27 122.92
  L 88.06 122.03
  A 0.50 0.49 -38.6 0 0 87.13 121.93
  Q 86.83 122.52 87.11 122.95
  Q 87.18 123.08 87.18 123.22"
/>
</g>
<path fill="#5cb9ff" d="
  M 0.00 0.00
  L 200.00 0.00
  L 200.00 200.00
  L 0.00 200.00
  L 0.00 0.00
  Z
  M 66.0357 79.5930
  A 4.29 4.29 0.0 0 0 61.7531 75.2955
  L 21.0732 75.2245
  A 4.29 4.29 0.0 0 0 16.7757 79.5070
  L 16.7043 120.4070
  A 4.29 4.29 0.0 0 0 20.9869 124.7045
  L 61.6668 124.7755
  A 4.29 4.29 0.0 0 0 65.9643 120.4930
  L 66.0357 79.5930
  Z
  M 98.15 75.25
  A 0.43 0.43 0.0 0 0 97.72 75.68
  L 97.81 93.51
  A 0.43 0.43 0.0 0 1 97.05 93.79
  L 81.93 75.48
  A 0.43 0.43 0.0 0 0 81.60 75.33
  L 73.92 75.23
  A 0.43 0.43 0.0 0 0 73.48 75.66
  L 73.49 111.09
  A 0.43 0.43 0.0 0 0 73.93 111.52
  L 82.83 111.40
  A 0.43 0.43 0.0 0 0 83.25 110.97
  L 83.25 93.11
  A 0.43 0.43 0.0 0 1 84.01 92.84
  L 99.31 111.34
  A 0.43 0.43 0.0 0 0 99.64 111.50
  L 107.32 111.50
  A 0.43 0.43 0.0 0 0 107.75 111.07
  L 107.75 75.68
  A 0.43 0.43 0.0 0 0 107.32 75.25
  L 98.15 75.25
  Z
  M 125.26 75.85
  A 0.60 0.60 0.0 0 0 124.66 75.25
  L 115.60 75.25
  A 0.60 0.60 0.0 0 0 115.00 75.85
  L 115.00 110.91
  A 0.60 0.60 0.0 0 0 115.60 111.51
  L 124.66 111.51
  A 0.60 0.60 0.0 0 0 125.26 110.91
  L 125.26 75.85
  Z
  M 149.34 98.23
  A 0.32 0.32 0.0 0 1 148.75 98.23
  L 139.22 75.45
  A 0.32 0.32 0.0 0 0 138.93 75.25
  L 128.67 75.25
  A 0.32 0.32 0.0 0 0 128.38 75.70
  L 143.57 111.31
  A 0.32 0.32 0.0 0 0 143.86 111.50
  L 153.46 111.50
  A 0.32 0.32 0.0 0 0 153.75 111.31
  L 168.97 75.70
  A 0.32 0.32 0.0 0 0 168.68 75.25
  L 159.35 75.25
  A 0.32 0.32 0.0 0 0 159.06 75.44
  L 149.34 98.23
  Z
  M 99.24 124.13
  Q 96.71 123.60 94.66 124.15
  Q 93.75 124.39 94.67 124.61
  Q 97.26 125.24 99.24 124.13
  Q 100.03 124.11 100.52 123.87
  A 1.04 1.03 -17.1 0 0 101.08 122.82
  L 100.51 117.97
  Q 100.44 117.42 99.90 117.54
  Q 99.72 117.58 99.60 117.72
  Q 99.40 117.94 99.40 118.50
  Q 99.40 121.16 99.24 124.13
  Z
  M 146.50 119.61
  Q 145.47 121.64 146.14 123.57
  A 0.58 0.58 0.0 0 0 147.26 123.37
  L 147.18 120.02
  Q 147.84 117.48 146.78 117.66
  Q 145.64 117.84 146.50 119.61
  Z
  M 110.19 117.75
  C 107.57 117.56 107.97 122.26 108.38 123.47
  A 0.66 0.66 0.0 0 0 109.65 123.37
  L 110.52 118.17
  Q 110.59 117.78 110.19 117.75
  Z
  M 133.32 119.65
  C 131.14 118.74 128.88 122.67 132.84 124.32
  A 1.87 1.87 0.0 0 0 135.43 122.69
  L 135.66 118.20
  A 0.43 0.43 0.0 0 0 134.86 117.96
  L 133.97 119.44
  Q 133.74 119.83 133.32 119.65
  Z
  M 168.02 119.72
  Q 167.37 121.72 167.91 123.80
  A 0.43 0.43 0.0 0 0 168.70 123.90
  Q 169.17 123.08 168.96 122.09
  Q 168.89 121.76 168.96 121.42
  Q 169.19 120.42 168.49 119.69
  L 168.96 118.28
  Q 169.01 118.13 168.89 118.02
  L 168.66 117.78
  A 0.41 0.41 0.0 0 0 167.99 117.94
  Q 167.73 118.70 168.02 119.72
  Z
  M 75.31 121.18
  L 77.67 123.98
  A 0.64 0.64 0.0 0 0 78.80 123.58
  L 78.86 118.63
  A 0.77 0.77 0.0 0 0 77.32 118.53
  Q 77.20 119.48 77.52 120.43
  A 0.54 0.54 0.0 0 1 76.59 120.94
  L 74.40 118.25
  A 0.65 0.65 0.0 0 0 73.24 118.66
  L 73.28 123.82
  A 0.55 0.55 0.0 0 0 74.37 123.86
  L 74.56 121.42
  A 0.43 0.43 0.0 0 1 75.31 121.18
  Z
  M 141.75 121.51
  Q 141.08 120.61 140.64 118.91
  Q 140.46 118.21 139.80 118.06
  A 0.54 0.54 0.0 0 0 139.19 118.81
  L 141.45 123.75
  A 0.76 0.76 0.0 0 0 142.83 123.75
  L 145.20 118.57
  A 0.35 0.35 0.0 0 0 144.67 118.14
  Q 143.15 119.27 142.95 121.18
  A 0.67 0.67 0.0 0 1 141.75 121.51
  Z
  M 165.9967 118.4274
  A 0.47 0.47 0.0 0 0 165.5243 117.9599
  L 165.4643 117.9602
  A 0.47 0.47 0.0 0 0 164.9968 118.4327
  L 165.0233 123.4926
  A 0.47 0.47 0.0 0 0 165.4957 123.9601
  L 165.5557 123.9598
  A 0.47 0.47 0.0 0 0 166.0232 123.4873
  L 165.9967 118.4274
  Z
  M 89.74 120.94
  Q 89.33 119.83 87.93 119.33
  A 1.39 0.98 -4.0 0 0 86.12 120.81
  Q 86.33 121.02 86.25 121.25
  Q 86.10 121.66 86.01 121.78
  L 85.59 122.43
  Q 85.18 123.04 85.76 123.50
  Q 87.70 125.03 89.38 123.03
  Q 90.17 122.09 89.74 120.94
  Z
  M 126.44 122.12
  L 126.86 120.40
  A 0.53 0.53 0.0 0 1 127.90 120.45
  L 128.06 121.69
  A 0.67 0.66 69.3 0 0 129.08 122.16
  L 129.56 121.84
  A 1.26 1.26 0.0 0 0 129.07 119.55
  C 123.36 118.60 124.06 125.24 128.82 123.89
  A 0.45 0.45 0.0 0 0 128.70 123.00
  L 127.14 123.00
  Q 126.23 123.00 126.44 122.12
  Z
  M 150.78 120.36
  L 151.49 120.47
  A 0.45 0.44 66.1 0 0 151.80 119.66
  Q 150.25 118.62 148.88 120.13
  Q 148.16 120.92 148.96 121.90
  A 0.63 0.63 0.0 0 0 150.09 121.53
  L 150.11 120.92
  A 0.58 0.58 0.0 0 1 150.78 120.36
  Z
  M 161.75 119.32
  A 1.32 1.32 0.0 0 0 159.77 120.72
  Q 159.94 121.57 159.41 122.19
  A 1.08 1.08 0.0 0 0 160.14 123.97
  L 160.72 124.01
  Q 161.61 124.08 161.08 123.36
  Q 160.15 122.13 160.56 120.60
  A 0.62 0.61 -52.0 0 1 161.69 120.46
  C 162.37 121.66 161.56 122.96 161.90 123.70
  Q 162.12 124.17 162.75 124.13
  Q 163.28 124.10 163.42 123.58
  Q 164.14 120.76 161.75 119.32
  Z
  M 172.36 122.11
  L 173.87 120.44
  A 0.45 0.45 0.0 0 0 173.61 119.69
  L 170.82 119.20
  A 0.37 0.37 0.0 0 0 170.42 119.41
  L 170.03 120.21
  A 0.07 0.07 0.0 0 0 170.08 120.31
  L 171.38 120.60
  A 0.55 0.54 -64.1 0 1 171.68 121.48
  L 170.14 123.40
  A 0.48 0.48 0.0 0 0 170.56 124.18
  L 173.72 123.92
  A 0.39 0.38 49.0 0 0 173.77 123.16
  L 172.61 122.90
  A 0.48 0.48 0.0 0 1 172.36 122.11
  Z
  M 81.78 122.61
  Q 81.17 121.36 81.95 120.20
  A 0.44 0.44 0.0 0 0 81.35 119.59
  Q 79.54 120.75 80.13 122.55
  A 2.21 2.15 -83.0 0 0 81.02 123.72
  Q 82.68 124.81 83.82 123.66
  A 0.47 0.47 0.0 0 0 83.40 122.86
  L 82.60 123.02
  Q 82.03 123.13 81.78 122.61
  Z
  M 84.5000 122.2237
  A 1.54 0.72 60.0 0 0 84.3535 120.5300
  A 1.54 0.72 60.0 0 0 82.9600 119.5563
  A 1.54 0.72 60.0 0 0 83.1065 121.2500
  A 1.54 0.72 60.0 0 0 84.5000 122.2237
  Z
  M 91.17 121.21
  Q 91.16 122.45 91.34 123.72
  Q 91.42 124.29 91.96 124.09
  Q 92.24 123.99 92.39 123.67
  Q 92.52 123.39 92.44 122.75
  Q 92.22 121.07 93.59 120.56
  A 0.55 0.55 0.0 0 0 93.39 119.50
  Q 92.27 119.51 91.69 119.86
  Q 91.17 120.19 91.17 121.21
  Z
  M 106.92 123.52
  C 107.67 120.25 105.37 118.48 102.38 119.94
  Q 102.00 120.13 102.00 120.55
  L 102.00 123.31
  Q 102.00 124.00 102.69 124.00
  Q 102.83 124.00 102.98 124.00
  A 0.39 0.38 3.1 0 0 103.38 123.65
  L 103.68 120.93
  A 0.61 0.61 0.0 0 1 104.69 120.53
  Q 105.90 121.59 105.46 123.20
  A 0.62 0.61 17.2 0 0 105.86 123.94
  Q 106.75 124.24 106.92 123.52
  Z
  M 114.31 119.69
  Q 113.58 119.30 112.98 119.61
  Q 112.49 119.86 112.36 120.59
  Q 112.09 122.01 112.32 123.45
  A 0.66 0.65 86.2 0 0 112.94 124.00
  Q 113.13 124.00 113.32 124.00
  A 0.44 0.43 80.8 0 0 113.73 123.42
  Q 113.05 121.46 114.81 120.37
  Q 115.24 120.10 114.83 119.80
  Q 114.58 119.62 114.31 119.69
  Z
  M 117.26 122.52
  Q 117.20 121.38 116.03 121.91
  A 0.78 0.77 -34.9 0 0 115.80 123.16
  Q 116.55 123.91 117.76 124.08
  A 2.17 2.17 0.0 0 0 120.08 121.12
  Q 119.03 118.55 116.12 119.94
  A 0.38 0.38 0.0 0 0 116.19 120.65
  Q 116.87 120.84 117.17 120.34
  A 0.63 0.63 0.0 0 1 118.20 120.28
  Q 119.03 121.33 118.75 122.63
  Q 118.67 123.00 118.41 123.14
  Q 118.12 123.29 117.80 123.20
  A 0.75 0.75 0.0 0 1 117.26 122.52
  Z
  M 121.69 120.44
  Q 121.16 121.88 121.91 123.67
  A 0.50 0.50 0.0 0 0 122.87 123.43
  Q 122.71 121.72 123.79 120.51
  Q 124.30 119.95 123.60 119.64
  Q 122.20 119.02 121.69 120.44
  Z
  M 154.82 122.49
  L 154.62 119.83
  A 0.53 0.53 0.0 0 0 153.60 119.69
  Q 152.74 122.04 154.34 124.01
  A 0.73 0.72 66.5 0 0 155.01 124.28
  L 157.42 123.92
  Q 157.91 123.85 157.95 123.36
  Q 158.13 120.89 157.93 120.08
  Q 157.77 119.41 157.08 119.53
  A 0.53 0.53 0.0 0 0 156.66 120.22
  Q 157.33 122.22 155.86 123.05
  A 0.70 0.70 0.0 0 1 154.82 122.49
  Z
  M 177.78 120.46
  L 178.15 121.83
  A 0.46 0.46 0.0 0 0 179.01 121.90
  Q 179.84 120.12 177.28 119.50
  A 1.55 1.50 41.3 0 0 176.44 119.54
  C 173.39 120.56 174.75 124.93 178.43 123.88
  Q 178.60 123.83 178.67 123.71
  Q 178.77 123.56 178.76 123.38
  Q 178.76 123.02 178.40 123.07
  Q 177.86 123.13 177.33 123.04
  Q 175.69 122.75 176.59 120.40
  A 0.63 0.63 0.0 0 1 177.78 120.46
  Z
  M 182.24 120.98
  L 182.88 120.35
  Q 183.33 119.90 182.74 119.67
  Q 181.52 119.19 180.92 120.40
  Q 180.08 122.12 181.15 123.86
  A 0.36 0.36 0.0 0 0 181.82 123.71
  L 182.08 121.33
  A 0.59 0.54 72.4 0 1 182.24 120.98
  Z
  M 150.21 122.90
  L 148.63 123.17
  A 0.37 0.37 0.0 0 0 148.60 123.90
  Q 150.45 124.39 152.03 123.49
  A 0.86 0.85 -37.0 0 0 152.22 122.15
  Q 151.31 121.22 150.62 122.59
  A 0.58 0.56 -81.3 0 1 150.21 122.90
  Z"
/>
<path fill="#ffffff" d="
  M 65.9643 120.4930
  A 4.29 4.29 0.0 0 1 61.6668 124.7755
  L 20.9869 124.7045
  A 4.29 4.29 0.0 0 1 16.7043 120.4070
  L 16.7757 79.5070
  A 4.29 4.29 0.0 0 1 21.0732 75.2245
  L 61.7531 75.2955
  A 4.29 4.29 0.0 0 1 66.0357 79.5930
  L 65.9643 120.4930
  Z
  M 44.86 88.59
  Q 37.47 88.19 30.36 89.34
  Q 29.92 89.41 29.55 89.68
  L 28.06 90.76
  Q 26.83 91.66 28.23 91.06
  L 30.71 90.02
  Q 31.02 90.20 31.35 90.25
  Q 31.83 90.32 32.19 90.64
  L 34.23 92.46
  A 0.54 0.50 -79.6 0 1 34.35 92.65
  C 35.19 94.79 35.04 97.24 35.80 99.10
  Q 37.18 102.50 39.25 104.58
  Q 44.52 100.97 46.70 96.85
  A 0.97 0.97 0.0 0 1 48.46 96.93
  Q 52.27 106.12 58.53 112.57
  Q 60.93 112.21 61.10 111.80
  A 2.00 1.72 -55.5 0 0 60.89 109.85
  Q 56.34 104.38 52.48 96.74
  L 50.25 89.41
  Q 47.34 86.83 44.86 88.59
  Z"
/>
<path fill="#ffffff" d="
  M 98.15 75.25
  L 107.32 75.25
  A 0.43 0.43 0.0 0 1 107.75 75.68
  L 107.75 111.07
  A 0.43 0.43 0.0 0 1 107.32 111.50
  L 99.64 111.50
  A 0.43 0.43 0.0 0 1 99.31 111.34
  L 84.01 92.84
  A 0.43 0.43 0.0 0 0 83.25 93.11
  L 83.25 110.97
  A 0.43 0.43 0.0 0 1 82.83 111.40
  L 73.93 111.52
  A 0.43 0.43 0.0 0 1 73.49 111.09
  L 73.48 75.66
  A 0.43 0.43 0.0 0 1 73.92 75.23
  L 81.60 75.33
  A 0.43 0.43 0.0 0 1 81.93 75.48
  L 97.05 93.79
  A 0.43 0.43 0.0 0 0 97.81 93.51
  L 97.72 75.68
  A 0.43 0.43 0.0 0 1 98.15 75.25
  Z"
/>
<rect fill="#ffffff" x="115.00" y="75.25" width="10.26" height="36.26" rx="0.60"/>
<path fill="#ffffff" d="
  M 149.34 98.23
  L 159.06 75.44
  A 0.32 0.32 0.0 0 1 159.35 75.25
  L 168.68 75.25
  A 0.32 0.32 0.0 0 1 168.97 75.70
  L 153.75 111.31
  A 0.32 0.32 0.0 0 1 153.46 111.50
  L 143.86 111.50
  A 0.32 0.32 0.0 0 1 143.57 111.31
  L 128.38 75.70
  A 0.32 0.32 0.0 0 1 128.67 75.25
  L 138.93 75.25
  A 0.32 0.32 0.0 0 1 139.22 75.45
  L 148.75 98.23
  A 0.32 0.32 0.0 0 0 149.34 98.23
  Z"
/>
<path fill="#d3edfe" d="
  M 50.25 89.41
  Q 49.12 90.67 48.30 91.89
  C 46.84 94.05 44.94 95.08 43.74 97.55
  C 42.33 100.44 40.94 102.03 39.25 104.58
  Q 37.18 102.50 35.80 99.10
  C 35.04 97.24 35.19 94.79 34.35 92.65
  A 0.54 0.50 -79.6 0 0 34.23 92.46
  L 32.19 90.64
  Q 31.83 90.32 31.35 90.25
  Q 31.02 90.20 30.71 90.02
  L 44.86 88.59
  Q 47.34 86.83 50.25 89.41
  Z"
/>
<path fill="#5cb9ff" d="
  M 44.86 88.59
  L 30.71 90.02
  L 28.23 91.06
  Q 26.83 91.66 28.06 90.76
  L 29.55 89.68
  Q 29.92 89.41 30.36 89.34
  Q 37.47 88.19 44.86 88.59
  Z"
/>
<path fill="#5cb9ff" d="
  M 50.25 89.41
  L 52.48 96.74
  Q 53.22 104.59 58.53 112.57
  Q 52.27 106.12 48.46 96.93
  A 0.97 0.97 0.0 0 0 46.70 96.85
  Q 44.52 100.97 39.25 104.58
  C 40.94 102.03 42.33 100.44 43.74 97.55
  C 44.94 95.08 46.84 94.05 48.30 91.89
  Q 49.12 90.67 50.25 89.41
  Z"
/>
<path fill="#d3edfe" d="
  M 52.48 96.74
  Q 56.34 104.38 60.89 109.85
  A 2.00 1.72 -55.5 0 1 61.10 111.80
  Q 60.93 112.21 58.53 112.57
  Q 53.22 104.59 52.48 96.74
  Z"
/>
<path fill="#d3edfe" d="
  M 99.24 124.13
  Q 99.40 121.16 99.40 118.50
  Q 99.40 117.94 99.60 117.72
  Q 99.72 117.58 99.90 117.54
  Q 100.44 117.42 100.51 117.97
  L 101.08 122.82
  A 1.04 1.03 -17.1 0 1 100.52 123.87
  Q 100.03 124.11 99.24 124.13
  Z"
/>
<path fill="#d3edfe" d="
  M 147.18 120.02
  L 146.50 119.61
  Q 145.64 117.84 146.78 117.66
  Q 147.84 117.48 147.18 120.02
  Z"
/>
<path fill="#ffffff" d="
  M 108.38 123.47
  C 107.97 122.26 107.57 117.56 110.19 117.75
  Q 110.59 117.78 110.52 118.17
  L 109.65 123.37
  A 0.66 0.66 0.0 0 1 108.38 123.47
  Z"
/>
<path fill="#ffffff" d="
  M 133.97 119.44
  L 134.86 117.96
  A 0.43 0.43 0.0 0 1 135.66 118.20
  L 135.43 122.69
  A 1.87 1.87 0.0 0 1 132.84 124.32
  C 128.88 122.67 131.14 118.74 133.32 119.65
  Q 133.74 119.83 133.97 119.44
  Z
  M 132.9612 123.0751
  A 1.20 1.05 95.2 0 0 134.1157 121.9752
  A 1.20 1.05 95.2 0 0 133.1788 120.6849
  A 1.20 1.05 95.2 0 0 132.0243 121.7848
  A 1.20 1.05 95.2 0 0 132.9612 123.0751
  Z"
/>
<path fill="#d3edfe" d="
  M 168.49 119.69
  Q 168.27 119.81 168.02 119.72
  Q 167.73 118.70 167.99 117.94
  A 0.41 0.41 0.0 0 1 168.66 117.78
  L 168.89 118.02
  Q 169.01 118.13 168.96 118.28
  L 168.49 119.69
  Z"
/>
<path fill="#ffffff" d="
  M 74.56 121.42
  L 74.37 123.86
  A 0.55 0.55 0.0 0 1 73.28 123.82
  L 73.24 118.66
  A 0.65 0.65 0.0 0 1 74.40 118.25
  L 76.59 120.94
  A 0.54 0.54 0.0 0 0 77.52 120.43
  Q 77.20 119.48 77.32 118.53
  A 0.77 0.77 0.0 0 1 78.86 118.63
  L 78.80 123.58
  A 0.64 0.64 0.0 0 1 77.67 123.98
  L 75.31 121.18
  A 0.43 0.43 0.0 0 0 74.56 121.42
  Z"
/>
<path fill="#ffffff" d="
  M 141.75 121.51
  A 0.67 0.67 0.0 0 0 142.95 121.18
  Q 143.15 119.27 144.67 118.14
  A 0.35 0.35 0.0 0 1 145.20 118.57
  L 142.83 123.75
  A 0.76 0.76 0.0 0 1 141.45 123.75
  L 139.19 118.81
  A 0.54 0.54 0.0 0 1 139.80 118.06
  Q 140.46 118.21 140.64 118.91
  Q 141.08 120.61 141.75 121.51
  Z"
/>
<rect fill="#ffffff" x="-0.50" y="-3.00" transform="translate(165.51,120.96) rotate(-0.3)" width="1.00" height="6.00" rx="0.47"/>
<path fill="#ffffff" d="
  M 89.74 120.94
  Q 90.17 122.09 89.38 123.03
  Q 87.70 125.03 85.76 123.50
  Q 85.18 123.04 85.59 122.43
  L 86.01 121.78
  Q 86.10 121.66 86.25 121.25
  Q 86.33 121.02 86.12 120.81
  A 1.39 0.98 -4.0 0 1 87.93 119.33
  Q 89.33 119.83 89.74 120.94
  Z
  M 87.18 123.22
  Q 87.18 123.50 87.21 123.53
  A 0.66 0.63 14.0 0 0 88.27 122.92
  L 88.06 122.03
  A 0.50 0.49 -38.6 0 0 87.13 121.93
  Q 86.83 122.52 87.11 122.95
  Q 87.18 123.08 87.18 123.22
  Z"
/>
<path fill="#ffffff" d="
  M 127.14 123.00
  L 128.70 123.00
  A 0.45 0.45 0.0 0 1 128.82 123.89
  C 124.06 125.24 123.36 118.60 129.07 119.55
  A 1.26 1.26 0.0 0 1 129.56 121.84
  L 129.08 122.16
  A 0.67 0.66 69.3 0 1 128.06 121.69
  L 127.90 120.45
  A 0.53 0.53 0.0 0 0 126.86 120.40
  L 126.44 122.12
  Q 126.23 123.00 127.14 123.00
  Z"
/>
<path fill="#ffffff" d="
  M 150.11 120.92
  L 150.09 121.53
  A 0.63 0.63 0.0 0 1 148.96 121.90
  Q 148.16 120.92 148.88 120.13
  Q 150.25 118.62 151.80 119.66
  A 0.45 0.44 66.1 0 1 151.49 120.47
  L 150.78 120.36
  A 0.58 0.58 0.0 0 0 150.11 120.92
  Z"
/>
<path fill="#ffffff" d="
  M 161.75 119.32
  Q 164.14 120.76 163.42 123.58
  Q 163.28 124.10 162.75 124.13
  Q 162.12 124.17 161.90 123.70
  C 161.56 122.96 162.37 121.66 161.69 120.46
  A 0.62 0.61 -52.0 0 0 160.56 120.60
  Q 160.15 122.13 161.08 123.36
  Q 161.61 124.08 160.72 124.01
  L 160.14 123.97
  A 1.08 1.08 0.0 0 1 159.41 122.19
  Q 159.94 121.57 159.77 120.72
  A 1.32 1.32 0.0 0 1 161.75 119.32
  Z"
/>
<path fill="#ffffff" d="
  M 172.61 122.90
  L 173.77 123.16
  A 0.39 0.38 49.0 0 1 173.72 123.92
  L 170.56 124.18
  A 0.48 0.48 0.0 0 1 170.14 123.40
  L 171.68 121.48
  A 0.55 0.54 -64.1 0 0 171.38 120.60
  L 170.08 120.31
  A 0.07 0.07 0.0 0 1 170.03 120.21
  L 170.42 119.41
  A 0.37 0.37 0.0 0 1 170.82 119.20
  L 173.61 119.69
  A 0.45 0.45 0.0 0 1 173.87 120.44
  L 172.36 122.11
  A 0.48 0.48 0.0 0 0 172.61 122.90
  Z"
/>
<path fill="#ffffff" d="
  M 82.60 123.02
  L 83.40 122.86
  A 0.47 0.47 0.0 0 1 83.82 123.66
  Q 82.68 124.81 81.02 123.72
  A 2.21 2.15 -83.0 0 1 80.13 122.55
  Q 79.54 120.75 81.35 119.59
  A 0.44 0.44 0.0 0 1 81.95 120.20
  Q 81.17 121.36 81.78 122.61
  Q 82.03 123.13 82.60 123.02
  Z"
/>
<ellipse fill="#ffffff" cx="0.00" cy="0.00" transform="translate(83.73,120.89) rotate(60.0)" rx="1.54" ry="0.72"/>
<path fill="#ffffff" d="
  M 91.69 119.86
  Q 92.27 119.51 93.39 119.50
  A 0.55 0.55 0.0 0 1 93.59 120.56
  Q 92.22 121.07 92.44 122.75
  Q 92.52 123.39 92.39 123.67
  Q 92.24 123.99 91.96 124.09
  Q 91.42 124.29 91.34 123.72
  Q 91.16 122.45 91.17 121.21
  Q 91.17 120.19 91.69 119.86
  Z"
/>
<path fill="#ffffff" d="
  M 102.38 119.94
  C 105.37 118.48 107.67 120.25 106.92 123.52
  Q 106.75 124.24 105.86 123.94
  A 0.62 0.61 17.2 0 1 105.46 123.20
  Q 105.90 121.59 104.69 120.53
  A 0.61 0.61 0.0 0 0 103.68 120.93
  L 103.38 123.65
  A 0.39 0.38 3.1 0 1 102.98 124.00
  Q 102.83 124.00 102.69 124.00
  Q 102.00 124.00 102.00 123.31
  L 102.00 120.55
  Q 102.00 120.13 102.38 119.94
  Z"
/>
<path fill="#ffffff" d="
  M 114.31 119.69
  Q 114.58 119.62 114.83 119.80
  Q 115.24 120.10 114.81 120.37
  Q 113.05 121.46 113.73 123.42
  A 0.44 0.43 80.8 0 1 113.32 124.00
  Q 113.13 124.00 112.94 124.00
  A 0.66 0.65 86.2 0 1 112.32 123.45
  Q 112.09 122.01 112.36 120.59
  Q 112.49 119.86 112.98 119.61
  Q 113.58 119.30 114.31 119.69
  Z"
/>
<path fill="#ffffff" d="
  M 117.80 123.20
  Q 118.12 123.29 118.41 123.14
  Q 118.67 123.00 118.75 122.63
  Q 119.03 121.33 118.20 120.28
  A 0.63 0.63 0.0 0 0 117.17 120.34
  Q 116.87 120.84 116.19 120.65
  A 0.38 0.38 0.0 0 1 116.12 119.94
  Q 119.03 118.55 120.08 121.12
  A 2.17 2.17 0.0 0 1 117.76 124.08
  Q 116.55 123.91 115.80 123.16
  A 0.78 0.77 -34.9 0 1 116.03 121.91
  Q 117.20 121.38 117.26 122.52
  A 0.75 0.75 0.0 0 0 117.80 123.20
  Z"
/>
<path fill="#ffffff" d="
  M 121.69 120.44
  Q 122.20 119.02 123.60 119.64
  Q 124.30 119.95 123.79 120.51
  Q 122.71 121.72 122.87 123.43
  A 0.50 0.50 0.0 0 1 121.91 123.67
  Q 121.16 121.88 121.69 120.44
  Z"
/>
<path fill="#ffffff" d="
  M 155.86 123.05
  Q 157.33 122.22 156.66 120.22
  A 0.53 0.53 0.0 0 1 157.08 119.53
  Q 157.77 119.41 157.93 120.08
  Q 158.13 120.89 157.95 123.36
  Q 157.91 123.85 157.42 123.92
  L 155.01 124.28
  A 0.73 0.72 66.5 0 1 154.34 124.01
  Q 152.74 122.04 153.60 119.69
  A 0.53 0.53 0.0 0 1 154.62 119.83
  L 154.82 122.49
  A 0.70 0.70 0.0 0 0 155.86 123.05
  Z"
/>
<path fill="#ffffff" d="
  M 177.78 120.46
  A 0.63 0.63 0.0 0 0 176.59 120.40
  Q 175.69 122.75 177.33 123.04
  Q 177.86 123.13 178.40 123.07
  Q 178.76 123.02 178.76 123.38
  Q 178.77 123.56 178.67 123.71
  Q 178.60 123.83 178.43 123.88
  C 174.75 124.93 173.39 120.56 176.44 119.54
  A 1.55 1.50 41.3 0 1 177.28 119.50
  Q 179.84 120.12 179.01 121.90
  A 0.46 0.46 0.0 0 1 178.15 121.83
  L 177.78 120.46
  Z"
/>
<path fill="#ffffff" d="
  M 182.08 121.33
  L 181.82 123.71
  A 0.36 0.36 0.0 0 1 181.15 123.86
  Q 180.08 122.12 180.92 120.40
  Q 181.52 119.19 182.74 119.67
  Q 183.33 119.90 182.88 120.35
  L 182.24 120.98
  A 0.59 0.54 72.4 0 0 182.08 121.33
  Z"
/>
<path fill="#ffffff" d="
  M 146.50 119.61
  L 147.18 120.02
  L 147.26 123.37
  A 0.58 0.58 0.0 0 1 146.14 123.57
  Q 145.47 121.64 146.50 119.61
  Z"
/>
<path fill="#ffffff" d="
  M 168.02 119.72
  Q 168.27 119.81 168.49 119.69
  Q 169.19 120.42 168.96 121.42
  Q 168.89 121.76 168.96 122.09
  Q 169.17 123.08 168.70 123.90
  A 0.43 0.43 0.0 0 1 167.91 123.80
  Q 167.37 121.72 168.02 119.72
  Z"
/>
<ellipse fill="#5cb9ff" cx="0.00" cy="0.00" transform="translate(133.07,121.88) rotate(95.2)" rx="1.20" ry="1.05"/>
<path fill="#5cb9ff" d="
  M 87.11 122.95
  Q 86.83 122.52 87.13 121.93
  A 0.50 0.49 -38.6 0 1 88.06 122.03
  L 88.27 122.92
  A 0.66 0.63 14.0 0 1 87.21 123.53
  Q 87.18 123.50 87.18 123.22
  Q 87.18 123.08 87.11 122.95
  Z"
/>
<path fill="#ffffff" d="
  M 150.62 122.59
  Q 151.31 121.22 152.22 122.15
  A 0.86 0.85 -37.0 0 1 152.03 123.49
  Q 150.45 124.39 148.60 123.90
  A 0.37 0.37 0.0 0 1 148.63 123.17
  L 150.21 122.90
  A 0.58 0.56 -81.3 0 0 150.62 122.59
  Z"
/>
<path fill="#d3edfe" d="
  M 99.24 124.13
  Q 97.26 125.24 94.67 124.61
  Q 93.75 124.39 94.66 124.15
  Q 96.71 123.60 99.24 124.13
  Z"
/>
</svg>
